<svg xmlns="http://www.w3.org/2000/svg" viewBox="0 0 100 125">
  <switch>
    <g fill="#222">
      <path d="M50 97.5c26.2 0 47.5-21.3 47.5-47.5S76.2 2.5 50 2.5 2.5 23.8 2.5 50 23.8 97.5 50 97.5zm0-88.2c22.4 0 40.7 18.2 40.7 40.7S72.4 90.7 50 90.7 9.3 72.4 9.3 50 27.6 9.3 50 9.3z"/>
      <path d="M47.6 63.5c.6.6 1.5 1 2.4 1s1.8-.4 2.4-1l18.3-18.3c1.3-1.3 1.3-3.5 0-4.8a3.44 3.44 0 0 0-4.8 0L50 56.2 34.2 40.4c-.7-.7-1.5-1-2.4-1-.9 0-1.8.3-2.4 1a3.44 3.44 0 0 0 0 4.8l18.2 18.3z"/>
    </g>
  </switch>
</svg>
